<?xml version="1.0" standalone="no"?>
<!DOCTYPE svg PUBLIC "-//W3C//DTD SVG 20010904//EN"
 "http://www.w3.org/TR/2001/REC-SVG-20010904/DTD/svg10.dtd">
<svg version="1.0" xmlns="http://www.w3.org/2000/svg"
 width="42.000000pt" height="77.000000pt" viewBox="0 0 42.000000 77.000000"
 preserveAspectRatio="xMidYMid meet">

<g transform="translate(0.000000,77.000000) scale(0.100000,-0.100000)"
fill="#000000" stroke="none">
<path d="M182 748 c-16 -16 -15 -39 3 -64 20 -29 55 -161 55 -207 0 -31 -3
-38 -17 -35 -14 2 -20 17 -25 59 -11 90 -65 209 -94 209 -31 0 -32 -33 -2 -99
16 -36 32 -90 35 -118 5 -48 4 -53 -14 -53 -16 0 -22 10 -31 53 -20 100 -44
134 -76 108 -12 -10 -11 -21 4 -69 17 -56 40 -313 40 -455 l0 -67 115 0 c129
0 171 11 199 55 40 61 -13 175 -81 175 -35 0 -53 16 -53 46 0 47 60 55 133 17
l29 -15 -5 154 c-6 194 -33 281 -81 262 -20 -7 -20 -27 -2 -79 8 -22 16 -71
18 -110 3 -60 1 -70 -14 -73 -15 -3 -18 4 -18 38 0 62 -28 169 -58 224 -29 54
-41 63 -60 44z"/>
</g>
</svg>
